<svg xmlns="http://www.w3.org/2000/svg" aria-hidden="true" style="position:absolute;width:0;height:0;overflow:hidden">
  <defs>
    <symbol id="icon-close" viewBox="0 0 32 32">
      <path fill="#fff" d="m8.532 25.333-1.867-1.867 7.467-7.467-7.467-7.467 1.867-1.867 7.467 7.467 7.467-7.467 1.867 1.867-7.467 7.467 7.467 7.467-1.867 1.867-7.467-7.467-7.467 7.467z" style="fill:var(--color1, #fff)"/>
    </symbol>
    <symbol id="icon-crown" viewBox="0 0 32 32">
      <path fill="#fff" d="M29.845 11.373c0 .259-.064.514-.186.743s-.3.422-.517.565a1.565 1.565 0 0 1-1.479.13l-3.893 9.391H8.213l-3.89-9.387a1.562 1.562 0 1 1 .609-.456l5.438 4.45 1.308-7.9c-.368-.065-.701-.26-.937-.55a1.568 1.568 0 0 1 .051-2.037 1.564 1.564 0 0 1 2.577 1.706 1.558 1.558 0 0 1-.772.765l3.394 7.312 3.401-7.331a1.568 1.568 0 0 1-.831-1.862 1.565 1.565 0 0 1 1.717-1.098 1.564 1.564 0 0 1 .025 3.089l1.308 7.901 5.454-4.456a1.56 1.56 0 0 1 .083-2.049 1.552 1.552 0 0 1 1.354-.475 1.556 1.556 0 0 1 1.17.83c.114.222.174.468.174.718zm-4.479 15.078H6.616v3.75h18.75v-3.75zm-1.734-3.25H8.368v2.25h15.264v-2.25z" style="fill:var(--color1, #fff)"/>
    </symbol>
    <symbol id="icon-cup" viewBox="0 0 32 32">
      <path fill="#fff" d="M9 2S5.882 4.338 6 6c.1 1.411 2.773 1.604 3 3 .119.736-1 2-1 2s3-1.586 3-3-2.675-1.624-3-3c-.242-1.026 1-3 1-3zm5 0s-3.118 2.338-3 4c.1 1.411 2.773 1.604 3 3 .119.736-1 2-1 2s3-1.586 3-3-2.675-1.624-3-3c-.242-1.026 1-3 1-3zm5 0s-3.118 2.338-3 4c.1 1.411 2.773 1.604 3 3 .119.736-1 2-1 2s3-1.586 3-3-2.675-1.624-3-3c-.242-1.026 1-3 1-3zM4.581 12.562c.089 3.997 1.184 11.214 4.669 14.875h9.5c3.485-3.661 4.58-10.878 4.669-14.875H4.581zm19.975.028a34.777 34.777 0 0 1-.092 1.879A3.573 3.573 0 0 1 27.563 18 3.57 3.57 0 0 1 24 21.562c-.274 0-.541-.032-.798-.092a23.713 23.713 0 0 1-.615 1.782c.45.12.924.185 1.413.185a5.43 5.43 0 0 0 5.438-5.438 5.43 5.43 0 0 0-4.882-5.41zM2.673 28.562c.094.325.241.7.435 1.023.165.275.356.513.527.661s.303.191.366.191h20c.063 0 .195-.042.366-.191s.362-.387.527-.661c.194-.323.34-.699.435-1.023H2.674z" style="fill:var(--color1, #fff)"/>
    </symbol>
    <symbol id="icon-dice1" viewBox="0 0 32 32">
      <path fill="#fff" d="M16 2.321 4.868 21.49h22.263L15.999 2.321zm-1.615.791L4.5 10.265v9.869l9.885-17.022zm3.23 0L27.5 20.134v-9.87l-9.885-7.153zM9.333 8.738V10.1l-.53.605V9.646c-.173.202-.356.398-.524.604.221.018.155.339.138.484-.109.596-.51 1.098-.838 1.549a11.32 11.32 0 0 1-.375.469c-.291.213-.531.274-.673-.091.018-.488.24-.951.503-1.31l.33-.495c-.003.154.006.311-.005.463-.146.272-.423.591-.36.913.485.055.764-.679.908-1.036.052-.172.132-.341-.089-.34v-.454l1.515-1.664zm13.258.076 2.803 3.404v.454L23.5 10.403v.529l-.379-.454c-.01-.259-.089-.524-.152-.756-.116-.184-.248-.357-.379-.529v-.378zm-6.587 3.927c.523 0 .921.096 1.193.287.272.189.408.467.408.834 0 .245-.068.45-.203.614-.133.164-.331.286-.594.365.293.081.514.213.663.397.15.181.226.411.226.689 0 .429-.143.753-.429.973-.284.218-.706.327-1.265.327-.562 0-.987-.109-1.274-.327-.286-.22-.429-.545-.429-.973 0-.278.074-.508.223-.689.151-.183.373-.316.666-.397-.263-.079-.46-.201-.594-.365s-.2-.369-.2-.614c0-.365.136-.643.408-.834s.672-.287 1.199-.287zm0 .701c-.178 0-.315.046-.411.139-.095.093-.142.224-.142.394 0 .172.047.304.142.397.097.093.234.139.411.139.174 0 .308-.046.402-.139s.142-.225.142-.397c0-.172-.047-.303-.142-.394-.095-.093-.229-.139-.402-.139zm0 1.766c-.209 0-.369.057-.481.171s-.168.277-.168.489c0 .212.056.376.168.489.112.112.272.168.481.168.207 0 .365-.056.475-.168.11-.114.165-.277.165-.489 0-.214-.055-.377-.165-.489-.11-.114-.268-.171-.475-.171zm-10.46 7.283L16 30.057l10.456-7.566H5.543zm8.714 1.452h3.409v.303c-.9.371-1.349.806-1.742 1.588h-.985c.444-.863.909-1.107 1.667-1.588h-2.349v-.303z" style="fill:var(--color1, #fff)"/>
    </symbol>
    <symbol id="icon-dice2" viewBox="0 0 32 32">
      <path fill="#fff" d="M13.65 1.545c-.888 0-1.906.222-3.094.743 4.825.538 4.119 5.713.881 6.638-4.087 1.169-8.207-1.481-6.146-6.2-2.479 1.184-2.636 5.05-.808 6.969 4.348 4.55-.927 7.744-2.155 2.85-2.449 7.844 1.443 18.05 13.841 18.05 15.669 0 17.625-23.419 8.075-25.94 1.656 2.69-.819 4.434-1.556 4.571-3.206.619-3.631-7.681-9.037-7.68zm2.344 7.38c.281 0 .587.069.8.181l7.244 4.194c.463.256.463.681 0 .95l-7.244 4.181c-.45.269-1.156.269-1.606 0L7.926 14.25c-.456-.269-.456-.694 0-.95l7.262-4.194c.213-.112.494-.181.806-.181zm-5.563 3.912c-1.35-.025-2.069.938-1.137 1.519.6.3 1.481.275 2.044-.05.55-.331.594-.856.094-1.212a2.097 2.097 0 0 0-1-.256zm11.163.007c-1.3.025-1.956.969-1.019 1.531.6.306 1.494.287 2.062-.044.556-.331.594-.869.075-1.225a2.195 2.195 0 0 0-.994-.262h-.125zm-5.563 0a2.223 2.223 0 0 0-1.106.262c-.638.35-.65.944-.038 1.306.619.363 1.613.35 2.194-.037.938-.563.288-1.519-1.05-1.531zm-8.812 2.562a.902.902 0 0 1 .35.1l6.969 4.031c.45.256.806.888.806 1.406v7.481c0 .519-.356.731-.806.475l-6.962-4.025c-.463-.269-.825-.888-.825-1.413V15.98c0-.388.188-.575.469-.575zm17.581 0c.262 0 .45.188.45.575v7.481c0 .525-.375 1.144-.813 1.413L17.468 28.9c-.45.256-.806.044-.806-.475v-7.481c0-.519.356-1.15.806-1.406l6.969-4.031a.902.902 0 0 1 .363-.1zM13.238 19.5h-.069c-.331.025-.531.3-.531.725-.037.65.45 1.506 1.056 1.862.612.35 1.1.069 1.075-.619.012-.887-.831-1.944-1.531-1.969zm8.181 1.362c-.7.006-1.55 1.075-1.544 1.963.006.65.481.9 1.075.556.587-.344 1.062-1.144 1.069-1.8 0-.419-.206-.694-.531-.719h-.069zM7.863 22.269c-.338.019-.544.294-.544.725-.031.656.456 1.506 1.062 1.862.613.344 1.1.062 1.075-.631 0-.906-.881-1.988-1.594-1.956z" style="fill:var(--color1, #fff)"/>
    </symbol>
    <symbol id="icon-email" viewBox="0 0 32 32">
      <path stroke-width="2" d="M18.667 11.334h-5.333A10.666 10.666 0 0 0 2.668 22.001v5.333a8 8 0 0 1 8-8h8v6h.667l10-10-10-10h-.667v6z"/>
    </symbol>
    <symbol id="icon-goblet" viewBox="0 0 32 32">
      <path fill="#fff" d="m9.912 2.563 2.156 4.319 2.881-4.319H9.911zm7.138 0 2.881 4.319 2.156-4.319h-5.038zM16 3.014l-2.95 4.424h5.9L16 3.014zm-7.119.008-3.68 4.415h5.886L8.881 3.022zm14.238 0-2.206 4.415H26.8l-3.681-4.415zM5.051 8.562 12.3 19.437h3.262L11.6 8.562H5.051zm7.755 0L16 17.356l3.194-8.794h-6.387zm7.594 0-3.962 10.875h3.263l7.25-10.875h-6.55zm-7.838 12v2.875h6.875v-2.875h-6.875zm-4.237 4-3.356 5.875h22.062l-3.356-5.875H8.325zM10 27.438h12v1.125H10v-1.125z" style="fill:var(--color1, #fff)"/>
    </symbol>
    <symbol id="icon-menu" viewBox="0 0 32 32">
      <path fill="#fff" d="M4 24v-2.667h24V24H4zm0-6.667v-2.667h24v2.667H4zm0-6.666V8h24v2.667H4z" style="fill:var(--color1, #fff)"/>
    </symbol>
    <symbol id="icon-minus" viewBox="0 0 32 32">
      <path fill="#fff" d="M28 16a.997.997 0 0 1-1 1H5a.997.997 0 0 1-1-1 .997.997 0 0 1 1-1h22a.997.997 0 0 1 1 1z" style="fill:var(--color1, #fff)"/>
    </symbol>
    <symbol id="icon-playstore" viewBox="0 0 32 32">
      <path fill="#ea4335" d="M15.066 15.282 2.003 29.341l.002.009C2.406 30.877 3.78 32 5.412 32c.653 0 1.265-.179 1.79-.493l.042-.025 14.703-8.603-6.881-7.597z" style="fill:var(--color2, #ea4335)"/>
      <path fill="#fbbc04" d="m28.28 12.888-.012-.009-6.348-3.731-7.151 6.454 7.177 7.276 6.313-3.694a3.589 3.589 0 0 0 1.859-3.154 3.58 3.58 0 0 0-1.838-3.141z" style="fill:var(--color3, #fbbc04)"/>
      <path fill="#4285f4" d="M2.003 2.658a3.54 3.54 0 0 0-.12.921v24.843c0 .319.042.627.121.919l13.51-13.699L2.003 2.658z" style="fill:var(--color4, #4285f4)"/>
      <path fill="#34a853" d="m15.163 16 6.76-6.854L7.237.512A3.492 3.492 0 0 0 5.414.001c-1.632 0-3.008 1.126-3.409 2.654l-.001.004 13.159 13.342z" style="fill:var(--color5, #34a853)"/>
    </symbol>
    <symbol id="icon-plus" viewBox="0 0 32 32">
      <path fill="#fff" d="M28 16a.997.997 0 0 1-1 1H17v10a.997.997 0 0 1-1 1 .997.997 0 0 1-1-1V17H5a.997.997 0 0 1-1-1 .997.997 0 0 1 1-1h10V5a.997.997 0 0 1 1-1 .997.997 0 0 1 1 1v10h10a.997.997 0 0 1 1 1z" style="fill:var(--color1, #fff)"/>
    </symbol>
    <symbol id="icon-coins" viewBox="0 0 24 24" fill="none">
  <path d="M12.3937 4.45362C10.725 4.45081 8.63434 4.97816 6.57184 6.05159C4.51263 7.12503 2.88044 8.53128 1.92231 9.90472C0.963719 11.2735 0.7045 12.5485 1.17606 13.4578C1.64809 14.3625 2.84153 14.8828 4.5145 14.8828C6.18747 14.8875 8.27809 14.3578 10.3359 13.2891C12.3984 12.2157 14.0297 10.8047 14.9859 9.43597C15.9468 8.06722 16.2 6.79222 15.7312 5.88284C15.2578 4.97816 14.0672 4.45362 12.3937 4.45362ZM16.7015 7.74847C16.5375 8.46566 16.1812 9.20159 15.6797 9.91878C14.6203 11.4328 12.8906 12.9094 10.725 14.0344C8.55934 15.1641 6.36091 15.7313 4.51403 15.7313C3.64216 15.7313 2.83403 15.6 2.15294 15.3235L2.64934 16.2797C3.12184 17.1891 4.312 17.7094 5.98591 17.7094C7.65934 17.7094 9.74997 17.1844 11.8078 16.111C13.8703 15.0422 15.5015 13.6313 16.4578 12.2578C17.414 10.8891 17.6765 9.61409 17.2031 8.70941L16.7015 7.74847ZM18.0515 8.53597C18.5765 9.78753 18.1547 11.311 17.1515 12.7407C16.2656 14.011 14.9109 15.2438 13.2328 16.275C13.7531 16.3313 14.2968 16.3594 14.85 16.3594C17.1703 16.3594 19.2703 15.8625 20.7515 15.0891C22.2375 14.3157 23.0531 13.3032 23.0531 12.2813C23.0531 11.2594 22.2375 10.2469 20.7515 9.47347C19.9968 9.07972 19.0781 8.75628 18.0515 8.53597ZM23.0531 14.386C22.575 14.9438 21.9187 15.436 21.1453 15.8391C19.5047 16.6922 17.2922 17.2032 14.85 17.2032C13.8562 17.2032 12.9 17.1188 12.0047 16.9594C10.9172 17.5078 9.82497 17.9157 8.77497 18.1828C8.83122 18.2157 8.88747 18.2438 8.94841 18.2766C10.4297 19.05 12.5297 19.5469 14.85 19.5469C17.1703 19.5469 19.2703 19.05 20.7515 18.2766C22.2375 17.5032 23.0531 16.4907 23.0531 15.4688V14.386Z" fill="#CCDDFF" />
</symbol>
<symbol id="icon-coin" viewBox="0 0 24 24">
  <path d="M12 3.2251C8.91099 3.2251 6.1313 4.09697 4.14145 5.47041C2.14927 6.84385 0.968018 8.7001 0.968018 10.7157C0.968018 12.7313 2.14927 14.5829 4.14145 15.961C6.12661 17.3345 8.91099 18.2063 12 18.2063C15.0844 18.2063 17.8735 17.3345 19.8657 15.961C21.8485 14.5829 23.0344 12.7313 23.0344 10.7157C23.0344 8.7001 21.8485 6.84385 19.8657 5.47041C17.8735 4.0965 15.0891 3.2251 12 3.2251ZM12.1407 4.21885L12.1313 5.09541C11.85 5.09072 11.5688 5.10478 11.2875 5.11885L11.2313 4.24229C11.536 4.22588 11.836 4.21885 12.1407 4.21885ZM13.0313 4.24697C13.3313 4.26432 13.636 4.29057 13.936 4.33088L13.8282 5.19854C13.5516 5.15166 13.2985 5.14697 12.9891 5.11885L13.0313 4.24697ZM10.3313 4.32197L10.4391 5.19385C10.1579 5.22197 9.87661 5.27354 9.59536 5.32041L9.44067 4.45791C9.75005 4.40119 10.0735 4.35807 10.3313 4.32197ZM14.836 4.4715C15.1313 4.5315 15.4266 4.59197 15.7172 4.67822L15.4922 5.52197C15.2204 5.45166 14.9391 5.39072 14.6625 5.33916L14.836 4.4715ZM8.76567 5.49854C8.48911 5.57354 8.20317 5.65791 7.95474 5.7376L7.65942 4.90791C7.94067 4.81885 8.28286 4.71104 8.56411 4.63463C8.63911 4.91729 8.70005 5.22197 8.76567 5.49854ZM16.5797 4.94072C16.8657 5.03916 17.1563 5.14229 17.4329 5.26416L17.086 6.07041C16.8282 5.95322 16.561 5.86416 16.2985 5.76572L16.5797 4.94072ZM6.82974 5.22666L7.17192 6.02822C6.88599 6.15947 6.66567 6.25322 6.41255 6.38916L6.00474 5.61103C6.30474 5.44697 6.52974 5.35322 6.82974 5.22666ZM18.2485 5.65791L18.2532 5.6626C18.5297 5.81729 18.8157 5.97666 19.0407 6.13135L18.5579 6.8626C18.3282 6.70791 18.0891 6.56729 17.8454 6.43604L17.8407 6.43135C17.986 6.17822 18.1125 5.91572 18.2485 5.65791ZM5.21724 6.07041C5.37192 6.31885 5.52661 6.5626 5.69067 6.80635C5.4563 6.95635 5.23599 7.12041 5.02036 7.29385L4.46958 6.61416C4.77661 6.28604 5.07192 6.13135 5.21724 6.07041ZM19.7813 6.68447C20.0157 6.89072 20.2547 7.0876 20.461 7.32666L19.8141 7.91728C19.6125 7.71572 19.411 7.50947 19.2188 7.35478L19.7813 6.68447ZM4.41802 7.85166C4.2263 8.05791 4.04208 8.28291 3.90239 8.47978L3.18989 7.96885C3.41489 7.68291 3.56864 7.46729 3.79458 7.24228C3.96427 7.4251 4.21692 7.65947 4.41802 7.85166ZM12.4922 7.44385C13.1204 8.55479 13.6688 9.72197 14.2407 10.8657L12.4922 8.79853L11.2079 10.3126L10.4719 9.83447C11.1469 9.0376 11.8172 8.24072 12.4922 7.44385ZM5.85005 7.99697C7.43442 8.79385 8.9438 9.89541 10.4438 10.861L7.24224 9.52979L8.47974 13.5329L12.4922 13.8282L16.5188 13.5329L16.0782 14.4423L12.4922 14.7048L7.82349 14.3626L5.85005 7.99697ZM19.1719 8.00166C18.3375 9.80635 17.4563 11.597 16.5891 13.3876L17.7844 9.5251L15.1032 10.6313L14.7047 9.84385L19.1719 8.00166ZM21.0422 8.0626C21.2157 8.32978 21.375 8.6251 21.5063 8.8876L20.7094 9.25322C20.6016 9.00478 20.4563 8.77978 20.3204 8.5501L21.0422 8.0626ZM2.70708 8.79853L3.50395 9.16416C3.38724 9.40322 3.30802 9.65635 3.24146 9.91416L2.39911 9.68916C2.48114 9.31885 2.56599 9.08916 2.70708 8.79853ZM21.8016 9.81104C21.8532 10.1485 21.9 10.4673 21.9 10.7813L21.0235 10.7673C21.0047 10.5001 20.9954 10.2235 20.9438 9.99854C21.2297 9.9376 21.5157 9.87197 21.8016 9.81104ZM3.14302 10.6829C3.14771 10.9548 3.17536 11.222 3.21802 11.4517L2.36021 11.6345C2.31849 11.3063 2.28239 10.9642 2.28052 10.6642C2.49146 10.6688 2.87817 10.6782 3.14302 10.6829ZM20.9344 11.5501L21.7875 11.7329C21.7172 12.0563 21.5954 12.3938 21.4782 12.6517L20.6813 12.286C20.7891 12.0282 20.8735 11.7751 20.9344 11.5501ZM3.44771 12.211C3.56396 12.4548 3.69146 12.6938 3.82271 12.9048L3.09614 13.3923C2.89974 13.0923 2.76427 12.8298 2.62271 12.5485C2.87583 12.4313 3.16786 12.3142 3.44771 12.211ZM20.2829 12.9845L21.0094 13.4767C20.8266 13.7438 20.6063 14.011 20.4235 14.2173C20.1985 14.0017 20.0016 13.8142 19.7813 13.6126V13.6079C19.9735 13.397 20.1469 13.1767 20.2829 12.9845ZM4.90786 14.1095L4.3477 14.7798C4.10349 14.5782 3.8602 14.3392 3.66802 14.1329L4.31489 13.5423C4.5188 13.7345 4.72036 13.9548 4.90786 14.1095ZM1.01021 13.9454C1.08989 14.5501 1.27271 15.1313 1.54927 15.6845V14.7329C1.35239 14.4798 1.17427 14.2173 1.01021 13.9454ZM22.9875 13.9454C22.7813 14.297 22.5375 14.6345 22.2704 14.9532V16.0173C22.65 15.361 22.8938 14.6673 22.9875 13.9454ZM19.186 14.1704L19.7344 14.8501C19.4485 15.0798 19.2704 15.211 18.9938 15.3938L18.511 14.6626C18.7454 14.5126 18.9657 14.3438 19.186 14.1704ZM5.5688 14.6063C5.79849 14.7657 6.04224 14.9063 6.28599 15.0423L5.86411 15.811C5.59224 15.6704 5.33911 15.497 5.0813 15.3376L5.5688 14.6063ZM17.7938 15.0845L18.2016 15.8626C17.9344 16.0079 17.6625 16.1298 17.3813 16.2517L17.0344 15.4454C17.3016 15.3376 17.5735 15.2017 17.7938 15.0845ZM7.0313 15.4079C7.28442 15.5251 7.5563 15.6095 7.8188 15.7126L7.53755 16.5423C7.25161 16.4485 6.97036 16.3267 6.68911 16.2142L7.0313 15.4079ZM2.42583 15.6985V17.0017C2.66489 17.2782 2.92739 17.5501 3.21333 17.8032V16.3688C2.93677 16.1532 2.67427 15.9329 2.42583 15.6985ZM16.2469 15.7454L16.5329 16.5751C16.2375 16.6735 15.9188 16.7579 15.661 16.8329L15.436 15.9845C15.7266 15.9188 15.9938 15.8157 16.2469 15.7454ZM21.3938 15.8626C21.1454 16.0829 20.8876 16.2985 20.611 16.5001V17.9579C20.8922 17.7188 21.1547 17.4657 21.3938 17.2032V15.8626ZM8.62505 15.961C8.89692 16.0313 9.17349 16.0923 9.45005 16.1485L9.28599 17.011C8.98599 16.9548 8.69536 16.8798 8.40474 16.8048L8.62505 15.961ZM14.611 16.1673L14.7797 17.0298C14.4704 17.0813 14.1516 17.1376 13.8844 17.1657L13.7766 16.2985C14.0766 16.247 14.3391 16.2048 14.611 16.1673ZM10.2891 16.2845C10.5704 16.322 10.8516 16.3501 11.1375 16.3688L11.0766 17.2407C10.7766 17.222 10.4766 17.1938 10.1766 17.1563L10.2891 16.2845ZM12.9329 16.3735L12.9797 17.2501C12.661 17.2735 12.3094 17.2876 11.9766 17.2735L11.9813 16.4017C12.3 16.4017 12.6141 16.3923 12.9329 16.3735ZM4.08989 16.9735V18.497C4.38989 18.7079 4.72505 18.9142 5.00161 19.0688V17.4892C4.6852 17.3298 4.38052 17.1563 4.08989 16.9735ZM19.7344 17.0813C19.4391 17.2595 19.1344 17.4235 18.8157 17.5782V19.1673C19.1391 18.9938 19.4438 18.811 19.7344 18.6188V17.0813ZM5.87817 17.897V19.5142C6.19224 19.6548 6.52036 19.7907 6.85786 19.9126V18.2673C6.52505 18.1548 6.19692 18.0329 5.87817 17.897ZM17.9391 17.972C17.6204 18.0985 17.2922 18.2157 16.9594 18.3235V19.9735C17.2969 19.8563 17.625 19.7298 17.9391 19.5938V17.972ZM7.73442 18.5298V20.1938C8.0438 20.2829 8.36255 20.3626 8.68599 20.4329V18.7548C8.36255 18.6892 8.0438 18.6142 7.73442 18.5298ZM16.0829 18.5767C15.7735 18.6563 15.4547 18.7267 15.1313 18.7876V20.4657C15.4547 20.4001 15.7735 20.3298 16.0829 20.2454V18.5767ZM9.56255 18.9048V20.5923C9.8813 20.6438 10.2094 20.6813 10.5422 20.7142V19.0173C10.2094 18.9892 9.8813 18.9517 9.56255 18.9048ZM14.2641 18.9282C13.9172 18.9751 13.5704 19.0126 13.2141 19.036V20.7329C13.5704 20.7048 13.9172 20.6673 14.2641 20.6204V18.9282ZM11.4188 19.0688V20.7657C11.7469 20.7798 12.0047 20.7751 12.3329 20.7751V19.0782C12.0282 19.0782 11.686 19.0829 11.4188 19.0688Z" fill="#CCDDFF" />
</symbol>
  </defs>
</svg>
