<svg xmlns="http://www.w3.org/2000/svg" aria-hidden="true" style="position:absolute;width:0;height:0;overflow:hidden">
  <defs>
    <symbol id="icon-close" viewBox="0 0 32 32">
      <path fill="#fff" d="m8.532 25.333-1.867-1.867 7.467-7.467-7.467-7.467 1.867-1.867 7.467 7.467 7.467-7.467 1.867 1.867-7.467 7.467 7.467 7.467-1.867 1.867-7.467-7.467-7.467 7.467z" style="fill:var(--color1, #fff)"/>
    </symbol>
    <symbol id="icon-crown" viewBox="0 0 32 32">
      <path fill="#fff" d="M29.845 11.373c0 .259-.064.514-.186.743s-.3.422-.517.565a1.565 1.565 0 0 1-1.479.13l-3.893 9.391H8.213l-3.89-9.387a1.562 1.562 0 1 1 .609-.456l5.438 4.45 1.308-7.9c-.368-.065-.701-.26-.937-.55a1.568 1.568 0 0 1 .051-2.037 1.564 1.564 0 0 1 2.577 1.706 1.558 1.558 0 0 1-.772.765l3.394 7.312 3.401-7.331a1.568 1.568 0 0 1-.831-1.862 1.565 1.565 0 0 1 1.717-1.098 1.564 1.564 0 0 1 .025 3.089l1.308 7.901 5.454-4.456a1.56 1.56 0 0 1 .083-2.049 1.552 1.552 0 0 1 1.354-.475 1.556 1.556 0 0 1 1.17.83c.114.222.174.468.174.718zm-4.479 15.078H6.616v3.75h18.75v-3.75zm-1.734-3.25H8.368v2.25h15.264v-2.25z" style="fill:var(--color1, #fff)"/>
    </symbol>
    <symbol id="icon-cup" viewBox="0 0 32 32">
      <path fill="#fff" d="M9 2S5.882 4.338 6 6c.1 1.411 2.773 1.604 3 3 .119.736-1 2-1 2s3-1.586 3-3-2.675-1.624-3-3c-.242-1.026 1-3 1-3zm5 0s-3.118 2.338-3 4c.1 1.411 2.773 1.604 3 3 .119.736-1 2-1 2s3-1.586 3-3-2.675-1.624-3-3c-.242-1.026 1-3 1-3zm5 0s-3.118 2.338-3 4c.1 1.411 2.773 1.604 3 3 .119.736-1 2-1 2s3-1.586 3-3-2.675-1.624-3-3c-.242-1.026 1-3 1-3zM4.581 12.562c.089 3.997 1.184 11.214 4.669 14.875h9.5c3.485-3.661 4.58-10.878 4.669-14.875H4.581zm19.975.028a34.777 34.777 0 0 1-.092 1.879A3.573 3.573 0 0 1 27.563 18 3.57 3.57 0 0 1 24 21.562c-.274 0-.541-.032-.798-.092a23.713 23.713 0 0 1-.615 1.782c.45.12.924.185 1.413.185a5.43 5.43 0 0 0 5.438-5.438 5.43 5.43 0 0 0-4.882-5.41zM2.673 28.562c.094.325.241.7.435 1.023.165.275.356.513.527.661s.303.191.366.191h20c.063 0 .195-.042.366-.191s.362-.387.527-.661c.194-.323.34-.699.435-1.023H2.674z" style="fill:var(--color1, #fff)"/>
    </symbol>
    <symbol id="icon-dice1" viewBox="0 0 32 32">
      <path fill="#fff" d="M16 2.321 4.868 21.49h22.263L15.999 2.321zm-1.615.791L4.5 10.265v9.869l9.885-17.022zm3.23 0L27.5 20.134v-9.87l-9.885-7.153zM9.333 8.738V10.1l-.53.605V9.646c-.173.202-.356.398-.524.604.221.018.155.339.138.484-.109.596-.51 1.098-.838 1.549a11.32 11.32 0 0 1-.375.469c-.291.213-.531.274-.673-.091.018-.488.24-.951.503-1.31l.33-.495c-.003.154.006.311-.005.463-.146.272-.423.591-.36.913.485.055.764-.679.908-1.036.052-.172.132-.341-.089-.34v-.454l1.515-1.664zm13.258.076 2.803 3.404v.454L23.5 10.403v.529l-.379-.454c-.01-.259-.089-.524-.152-.756-.116-.184-.248-.357-.379-.529v-.378zm-6.587 3.927c.523 0 .921.096 1.193.287.272.189.408.467.408.834 0 .245-.068.45-.203.614-.133.164-.331.286-.594.365.293.081.514.213.663.397.15.181.226.411.226.689 0 .429-.143.753-.429.973-.284.218-.706.327-1.265.327-.562 0-.987-.109-1.274-.327-.286-.22-.429-.545-.429-.973 0-.278.074-.508.223-.689.151-.183.373-.316.666-.397-.263-.079-.46-.201-.594-.365s-.2-.369-.2-.614c0-.365.136-.643.408-.834s.672-.287 1.199-.287zm0 .701c-.178 0-.315.046-.411.139-.095.093-.142.224-.142.394 0 .172.047.304.142.397.097.093.234.139.411.139.174 0 .308-.046.402-.139s.142-.225.142-.397c0-.172-.047-.303-.142-.394-.095-.093-.229-.139-.402-.139zm0 1.766c-.209 0-.369.057-.481.171s-.168.277-.168.489c0 .212.056.376.168.489.112.112.272.168.481.168.207 0 .365-.056.475-.168.11-.114.165-.277.165-.489 0-.214-.055-.377-.165-.489-.11-.114-.268-.171-.475-.171zm-10.46 7.283L16 30.057l10.456-7.566H5.543zm8.714 1.452h3.409v.303c-.9.371-1.349.806-1.742 1.588h-.985c.444-.863.909-1.107 1.667-1.588h-2.349v-.303z" style="fill:var(--color1, #fff)"/>
    </symbol>
    <symbol id="icon-dice2" viewBox="0 0 32 32">
      <path fill="#fff" d="M13.65 1.545c-.888 0-1.906.222-3.094.743 4.825.538 4.119 5.713.881 6.638-4.087 1.169-8.207-1.481-6.146-6.2-2.479 1.184-2.636 5.05-.808 6.969 4.348 4.55-.927 7.744-2.155 2.85-2.449 7.844 1.443 18.05 13.841 18.05 15.669 0 17.625-23.419 8.075-25.94 1.656 2.69-.819 4.434-1.556 4.571-3.206.619-3.631-7.681-9.037-7.68zm2.344 7.38c.281 0 .587.069.8.181l7.244 4.194c.463.256.463.681 0 .95l-7.244 4.181c-.45.269-1.156.269-1.606 0L7.926 14.25c-.456-.269-.456-.694 0-.95l7.262-4.194c.213-.112.494-.181.806-.181zm-5.563 3.912c-1.35-.025-2.069.938-1.137 1.519.6.3 1.481.275 2.044-.05.55-.331.594-.856.094-1.212a2.097 2.097 0 0 0-1-.256zm11.163.007c-1.3.025-1.956.969-1.019 1.531.6.306 1.494.287 2.062-.044.556-.331.594-.869.075-1.225a2.195 2.195 0 0 0-.994-.262h-.125zm-5.563 0a2.223 2.223 0 0 0-1.106.262c-.638.35-.65.944-.038 1.306.619.363 1.613.35 2.194-.037.938-.563.288-1.519-1.05-1.531zm-8.812 2.562a.902.902 0 0 1 .35.1l6.969 4.031c.45.256.806.888.806 1.406v7.481c0 .519-.356.731-.806.475l-6.962-4.025c-.463-.269-.825-.888-.825-1.413V15.98c0-.388.188-.575.469-.575zm17.581 0c.262 0 .45.188.45.575v7.481c0 .525-.375 1.144-.813 1.413L17.468 28.9c-.45.256-.806.044-.806-.475v-7.481c0-.519.356-1.15.806-1.406l6.969-4.031a.902.902 0 0 1 .363-.1zM13.238 19.5h-.069c-.331.025-.531.3-.531.725-.037.65.45 1.506 1.056 1.862.612.35 1.1.069 1.075-.619.012-.887-.831-1.944-1.531-1.969zm8.181 1.362c-.7.006-1.55 1.075-1.544 1.963.006.65.481.9 1.075.556.587-.344 1.062-1.144 1.069-1.8 0-.419-.206-.694-.531-.719h-.069zM7.863 22.269c-.338.019-.544.294-.544.725-.031.656.456 1.506 1.062 1.862.613.344 1.1.062 1.075-.631 0-.906-.881-1.988-1.594-1.956z" style="fill:var(--color1, #fff)"/>
    </symbol>
    <symbol id="icon-email" viewBox="0 0 32 32">
      <path stroke-width="2" d="M18.667 11.334h-5.333A10.666 10.666 0 0 0 2.668 22.001v5.333a8 8 0 0 1 8-8h8v6h.667l10-10-10-10h-.667v6z"/>
    </symbol>
    <symbol id="icon-goblet" viewBox="0 0 32 32">
      <path fill="#fff" d="m9.912 2.563 2.156 4.319 2.881-4.319H9.911zm7.138 0 2.881 4.319 2.156-4.319h-5.038zM16 3.014l-2.95 4.424h5.9L16 3.014zm-7.119.008-3.68 4.415h5.886L8.881 3.022zm14.238 0-2.206 4.415H26.8l-3.681-4.415zM5.051 8.562 12.3 19.437h3.262L11.6 8.562H5.051zm7.755 0L16 17.356l3.194-8.794h-6.387zm7.594 0-3.962 10.875h3.263l7.25-10.875h-6.55zm-7.838 12v2.875h6.875v-2.875h-6.875zm-4.237 4-3.356 5.875h22.062l-3.356-5.875H8.325zM10 27.438h12v1.125H10v-1.125z" style="fill:var(--color1, #fff)"/>
    </symbol>
    <symbol id="icon-menu" viewBox="0 0 32 32">
      <path fill="#fff" d="M4 24v-2.667h24V24H4zm0-6.667v-2.667h24v2.667H4zm0-6.666V8h24v2.667H4z" style="fill:var(--color1, #fff)"/>
    </symbol>
    <symbol id="icon-minus" viewBox="0 0 32 32">
      <path fill="#fff" d="M28 16a.997.997 0 0 1-1 1H5a.997.997 0 0 1-1-1 .997.997 0 0 1 1-1h22a.997.997 0 0 1 1 1z" style="fill:var(--color1, #fff)"/>
    </symbol>
    <symbol id="icon-playstore" viewBox="0 0 32 32">
      <path fill="#ea4335" d="M15.066 15.282 2.003 29.341l.002.009C2.406 30.877 3.78 32 5.412 32c.653 0 1.265-.179 1.79-.493l.042-.025 14.703-8.603-6.881-7.597z" style="fill:var(--color2, #ea4335)"/>
      <path fill="#fbbc04" d="m28.28 12.888-.012-.009-6.348-3.731-7.151 6.454 7.177 7.276 6.313-3.694a3.589 3.589 0 0 0 1.859-3.154 3.58 3.58 0 0 0-1.838-3.141z" style="fill:var(--color3, #fbbc04)"/>
      <path fill="#4285f4" d="M2.003 2.658a3.54 3.54 0 0 0-.12.921v24.843c0 .319.042.627.121.919l13.51-13.699L2.003 2.658z" style="fill:var(--color4, #4285f4)"/>
      <path fill="#34a853" d="m15.163 16 6.76-6.854L7.237.512A3.492 3.492 0 0 0 5.414.001c-1.632 0-3.008 1.126-3.409 2.654l-.001.004 13.159 13.342z" style="fill:var(--color5, #34a853)"/>
    </symbol>
    <symbol id="icon-plus" viewBox="0 0 32 32">
      <path fill="#fff" d="M28 16a.997.997 0 0 1-1 1H17v10a.997.997 0 0 1-1 1 .997.997 0 0 1-1-1V17H5a.997.997 0 0 1-1-1 .997.997 0 0 1 1-1h10V5a.997.997 0 0 1 1-1 .997.997 0 0 1 1 1v10h10a.997.997 0 0 1 1 1z" style="fill:var(--color1, #fff)"/>
    </symbol>
  </defs>
</svg>
